<?xml version="1.0" encoding="iso-8859-1"?>
<!-- Generator: Adobe Illustrator 19.0.0, SVG Export Plug-In . SVG Version: 6.00 Build 0)  -->
<svg version="1.1" id="Capa_1" xmlns="http://www.w3.org/2000/svg" xmlns:xlink="http://www.w3.org/1999/xlink" x="0px" y="0px"
	 viewBox="0 0 511.999 511.999" style="enable-background:new 0 0 511.999 511.999;" xml:space="preserve">
<path style="fill:#F9A755;" d="M190.23,108.021L98.203,15.994c-11.317-11.317-29.664-11.316-40.98,0
	c-11.315,11.314-11.315,29.661,0,40.979L149.251,149L190.23,108.021z"/>
<path style="fill:#EF9543;" d="M78.029,38.472c-8.173-8.175-10.439-20.016-6.807-30.225c-5.129,1.174-10.003,3.751-13.998,7.748
	c-11.315,11.314-11.315,29.661,0,40.979l92.028,92.027l19.653-19.653L78.029,38.472z"/>
<path style="fill:#C8E9FC;" d="M169.257,162.528c5.529,5.529,196.682,196.682,201.499,201.499c6.064,6.065,14.53,8.263,22.34,6.605
	l18.423,18.423c5.182,5.182,13.585,5.182,18.767,0c5.182-5.182,5.182-13.585,0-18.766l-18.423-18.423
	c1.658-7.81-0.54-16.274-6.606-22.34l-60.123-60.123c-6.72-6.72-134.577-134.577-141.376-141.376L169.257,162.528z"/>
<path style="fill:#B5E0F7;" d="M411.863,351.866c-10.238,5.456-19.163,1.376-25.971-5.432
	c-5.338-5.338-197.798-197.798-200.27-200.27l-16.365,16.365c5.529,5.529,196.682,196.682,201.499,201.499
	c6.064,6.065,14.53,8.263,22.34,6.605l18.423,18.423c5.182,5.182,13.585,5.182,18.767,0c5.182-5.182,5.182-13.585,0-18.766
	L411.863,351.866z"/>
<path style="fill:#6EBEFF;" d="M411.863,351.866c1.658-7.81-0.54-16.274-6.606-22.34l-60.123-60.123l-24.326-24.326l-34.503,34.502
	c3.038,3.038,77.92,77.919,84.45,84.449c6.064,6.065,14.53,8.263,22.34,6.605l18.423,18.423c5.182,5.182,13.585,5.182,18.767,0
	c5.182-5.182,5.182-13.585,0-18.766L411.863,351.866z"/>
<path style="fill:#49A9EA;" d="M430.286,370.289l-18.423-18.423c-10.238,5.456-19.163,1.376-25.971-5.432
	c-55.88-55.88-46.59-46.589-83.221-83.22l-16.365,16.364c4.283,4.283,79.337,79.337,84.45,84.45
	c6.064,6.065,14.53,8.263,22.34,6.605l18.423,18.423c5.182,5.182,13.585,5.182,18.767,0
	C435.469,383.874,435.469,375.471,430.286,370.289z"/>
<path style="fill:#6EBEFF;" d="M457.225,457.739l-21.862-28.472c-0.568-0.739-1.811-0.739-2.38,0l-21.861,28.472
	c-8.462,11.018-7.648,26.066,0.226,35.713c11.647,14.749,34.012,14.737,45.637,0.015
	C465.202,483.061,465.361,468.335,457.225,457.739z"/>
<path style="fill:#49A9EA;" d="M440.191,457.739l8.517-11.093l-13.344-17.379c-0.568-0.739-1.811-0.739-2.38,0l-21.861,28.472
	c-8.079,10.519-8.025,25.155,0.148,35.617c9.961,12.202,25.702,14.051,37.436,7.258
	C433.484,491.791,429.483,471.682,440.191,457.739z"/>
<path style="fill:#FFDB80;" d="M136.522,159.73l64.438-64.438c5.182-5.182,13.585-5.181,18.767,0c5.182,5.183,5.182,13.584,0,18.767
	l-64.438,64.438c-5.183,5.182-13.585,5.181-18.767,0C131.34,173.315,131.339,164.912,136.522,159.73z"/>
<path style="fill:#FBCA61;" d="M174.059,122.193l-37.537,37.537c-5.183,5.182-5.182,13.584,0,18.767
	c5.182,5.181,13.584,5.182,18.767,0l37.536-37.537C180.807,147.121,167.901,134.204,174.059,122.193z"/>
<path d="M441.673,379.675c0-5.548-2.161-10.765-6.083-14.687l-15.781-15.781c0.704-9.085-2.495-18.23-9.247-24.982
	c-1.837-1.837-143.215-143.215-147.7-147.699c-2.93-2.929-7.679-2.929-10.608,0s-2.929,7.679,0,10.607l57.947,57.947l-23.895,23.894
	L180.864,163.531l23.895-23.895l30.203,30.203c2.93,2.928,7.679,2.93,10.608,0c2.929-2.929,2.929-7.679,0-10.607l-30.204-30.203
	l9.665-9.665c8.098-8.099,8.098-21.275-0.001-29.374c-8.1-8.099-21.277-8.098-29.374,0l-6.426,6.426l-85.722-85.723
	c-14.256-14.256-37.33-14.259-51.587,0C37.699,24.914,37.698,48.055,51.92,62.28l85.724,85.724l-6.426,6.426h0.001
	c-13.044,13.043-3.768,35.449,14.687,35.449c10.465,0,14.793-6.178,24.352-15.738c1.932,1.932,171.852,171.852,195.194,195.194
	c6.649,6.651,15.749,9.961,24.982,9.248l15.78,15.781C419.253,407.398,441.673,398.121,441.673,379.675z M62.527,51.672
	C49.044,38.188,58.643,15.01,77.713,15.01c5.736,0,11.131,2.234,15.187,6.29l85.724,85.723l-30.371,30.372L62.527,51.672z
	 M149.985,173.196c-2.25,2.25-5.911,2.25-8.16,0c-2.25-2.25-2.25-5.91-0.001-8.16c0,0,0,0,0.001,0
	c70.308-70.308,65.222-66.125,68.517-66.125c5.123,0,7.704,6.222,4.079,9.847C207.717,115.463,156.73,166.451,149.985,173.196z
	 M395.152,363.428c-1.172-0.335-2.483-0.37-3.614-0.129c-5.634,1.195-11.421-0.513-15.479-4.571l-79.146-79.146l23.895-23.894
	l79.145,79.145c4.09,4.09,5.758,9.889,4.571,15.478c-0.527,2.483,0.238,5.066,2.033,6.862c19.9,19.9,20.113,19.318,20.113,22.503
	c0,5.121-6.224,7.705-9.849,4.08l-18.423-18.423C397.563,364.495,396.41,363.785,395.152,363.428z"/>
<path d="M463.173,453.174l-23.052-30.022c-1.419-1.849-3.617-2.932-5.948-2.932s-4.529,1.083-5.948,2.932l-23.052,30.021
	c-10.661,13.882-9.593,32.845,0.289,44.929c14.841,18.803,43.254,18.305,57.542-0.15
	C473.264,484.819,473.333,466.406,463.173,453.174z M439.265,496.41c-8.146,1.982-16.761-0.928-22.047-7.625l-0.09-0.111
	c-6.016-7.74-6.041-18.573-0.059-26.365l17.103-22.274l17.103,22.273C460.974,474.943,454.024,492.819,439.265,496.41z"/>
<g>
</g>
<g>
</g>
<g>
</g>
<g>
</g>
<g>
</g>
<g>
</g>
<g>
</g>
<g>
</g>
<g>
</g>
<g>
</g>
<g>
</g>
<g>
</g>
<g>
</g>
<g>
</g>
<g>
</g>
</svg>
